<svg width="37" height="38" viewBox="0 0 37 38" fill="none" xmlns="http://www.w3.org/2000/svg">
<path d="M11.3333 17.6667H7.08333L4.25 33.25H29.75L26.9167 17.6667H22.6667M11.3333 17.6667V13.4167C11.3333 10.2871 13.8704 7.75 17 7.75V7.75C20.1296 7.75 22.6667 10.2871 22.6667 13.4167V17.6667M11.3333 17.6667H22.6667M11.3333 17.6667V21.9167M22.6667 17.6667V21.9167" stroke="#1A1A1A" stroke-width="1.5" stroke-linecap="round" stroke-linejoin="round"/>
<rect x="17.5" y="1" width="19" height="19" rx="9.5" fill="#2C742F"/>
<rect x="17.5" y="1" width="19" height="19" rx="9.5" stroke="white"/>
<path d="M25.3443 12.45C25.9843 11.8967 26.4876 11.4433 26.8543 11.09C27.2276 10.73 27.5376 10.3567 27.7843 9.97C28.0309 9.58333 28.1543 9.19667 28.1543 8.81C28.1543 8.41 28.0576 8.09667 27.8643 7.87C27.6776 7.64333 27.3809 7.53 26.9743 7.53C26.5809 7.53 26.2743 7.65667 26.0543 7.91C25.8409 8.15667 25.7276 8.49 25.7143 8.91H24.6143C24.6343 8.15 24.8609 7.57 25.2943 7.17C25.7343 6.76333 26.2909 6.56 26.9643 6.56C27.6909 6.56 28.2576 6.76 28.6643 7.16C29.0776 7.56 29.2843 8.09333 29.2843 8.76C29.2843 9.24 29.1609 9.70333 28.9143 10.15C28.6743 10.59 28.3843 10.9867 28.0443 11.34C27.7109 11.6867 27.2843 12.09 26.7643 12.55L26.3143 12.95H29.4843V13.9H24.6243V13.07L25.3443 12.45Z" fill="white"/>
</svg>
